tugOfWar_states
version=1
nRows=34
nColumns=17
inDegrees=yes

# SIMM Motion File Header:
name tugOfWar_states
datacolumns 17
datarows 34
otherdata 1
range 2.28545065 2.31037473
endheader
time	blockToGround_xTranslation	blockToGround_yTranslation	blockToGround_zTranslation	blockToGround_xRotation	blockToGround_yRotation	blockToGround_zRotation	blockToGround_xTranslation_u	blockToGround_yTranslation_u	blockToGround_zTranslation_u	blockToGround_xRotation_u	blockToGround_yRotation_u	blockToGround_zRotation_u	muscle1.activation	muscle1.fiber_length	muscle2.activation	muscle2.fiber_length
      2.28545065	     -0.01861106	     -0.00007767	      0.01472381	      2.44463256	    -59.02087712	      5.03010321	     -0.08487439	      0.00084024	      0.10254281	      4.49825024	   -183.92675848	    -18.08546250	      0.10172821	      0.13588112	      0.00508641	      0.11370370
      2.28614370	     -0.01866977	     -0.00007709	      0.01479464	      2.43596959	    -59.14851706	      5.01645274	     -0.08454850	      0.00081996	      0.10187844	      4.30421014	   -183.22929091	    -17.82035944	      0.10165773	      0.13601548	      0.00508289	      0.11374768
      2.28683676	     -0.01872824	     -0.00007653	      0.01486499	      2.42736995	    -59.27564874	      5.00305758	     -0.08418910	      0.00079681	      0.10110490	      4.07741465	   -182.45186307	    -17.50112100	      0.10158730	      0.13619750	      0.00507936	      0.11379179
      2.28752982	     -0.01878648	     -0.00007599	      0.01493481	      2.41887007	    -59.40222899	      4.98997837	     -0.08388588	      0.00077407	      0.10039446	      3.86667986	   -181.70057928	    -17.17506344	      0.10151692	      0.13633105	      0.00507585	      0.11383603
      2.28822287	     -0.01884451	     -0.00007546	      0.01500412	      2.41049691	    -59.52826212	      4.97723959	     -0.08355024	      0.00074861	      0.09957806	      3.62426868	   -180.87065705	    -16.79640992	      0.10144659	      0.13651118	      0.00507233	      0.11388040
      2.28891593	     -0.01890231	     -0.00007495	      0.01507286	      2.40228742	    -59.65370583	      4.96490138	     -0.08326883	      0.00072357	      0.09882230	      3.39737704	   -180.06498408	    -16.41097947	      0.10137630	      0.13664319	      0.00506882	      0.11392490
      2.28960898	     -0.01895992	     -0.00007446	      0.01514106	      2.39426922	    -59.77856285	      4.95298925	     -0.08295566	      0.00069596	      0.09796323	      3.13976519	   -179.18167808	    -15.97445655	      0.10130607	      0.13682091	      0.00506530	      0.11396952
      2.29030204	     -0.01901731	     -0.00007399	      0.01520867	      2.38647968	    -59.90279178	      4.94156264	     -0.08269415	      0.00066876	      0.09716140	      2.89689700	   -178.32013049	    -15.53104651	      0.10123588	      0.13695166	      0.00506179	      0.11401427
      2.29099510	     -0.01907453	     -0.00007353	      0.01527571	      2.37894697	    -60.02639369	      4.93064802	     -0.08240204	      0.00063914	      0.09626010	      2.62464312	   -177.38273281	    -15.03848002	      0.10116574	      0.13712633	      0.00505829	      0.11405914
      2.29168815	     -0.01913155	     -0.00007310	      0.01534212	      2.37170868	    -60.14932822	      4.92030382	     -0.08215822	      0.00060992	      0.09541136	      2.36604542	   -176.46382971	    -14.53867915	      0.10109565	      0.13725618	      0.00505478	      0.11410414
      2.29238121	     -0.01918840	     -0.00007269	      0.01540793	      2.36479348	    -60.27159471	      4.91055743	     -0.08188533	      0.00057843	      0.09446799	      2.07971751	   -175.47151504	    -13.99202409	      0.10102561	      0.13742748	      0.00505128	      0.11414926
      2.29307426	     -0.01924507	     -0.00007230	      0.01547309	      2.35823897	    -60.39315399	      4.90146597	     -0.08165692	      0.00054731	      0.09357197	      1.80586105	   -174.49411936	    -13.43773843	      0.10095562	      0.13755651	      0.00504778	      0.11419449
      2.29376732	     -0.01930157	     -0.00007193	      0.01553760	      2.35207424	    -60.51400360	      4.89305763	     -0.08140116	      0.00051410	      0.09258674	      1.50615435	   -173.44619726	    -12.83916324	      0.10088568	      0.13772412	      0.00504428	      0.11423985
      2.29446038	     -0.01935791	     -0.00007158	      0.01560144	      2.34633674	    -60.63410573	      4.88538796	     -0.08118564	      0.00048121	      0.09164307	      1.21763508	   -172.40929653	    -12.23249492	      0.10081578	      0.13785241	      0.00504079	      0.11428531
      2.29515343	     -0.01941410	     -0.00007126	      0.01566461	      2.34105590	    -60.75345600	      4.87848589	     -0.08094465	      0.00044640	      0.09061626	      0.90538296	   -171.30522971	    -11.58436094	      0.10074593	      0.13801599	      0.00503730	      0.11433089
      2.29588805	     -0.01947348	     -0.00007095	      0.01573078	      2.33599833	    -60.87910160	      4.87206782	     -0.08073021	      0.00040985	      0.08957047	      0.58631183	   -170.14504353	    -10.88909856	      0.10067195	      0.13815174	      0.00503360	      0.11437932
      2.29662266	     -0.01953270	     -0.00007066	      0.01579617	      2.33153011	    -61.00385753	      4.86660509	     -0.08048453	      0.00037120	      0.08842958	      0.24077638	   -168.90811925	    -10.14821502	      0.10059802	      0.13832681	      0.00502990	      0.11442787
      2.29735727	     -0.01959174	     -0.00007040	      0.01586073	      2.32769583	    -61.12767933	      4.86216175	     -0.08028441	      0.00033316	      0.08734250	     -0.08900532	   -167.68787179	     -9.40303671	      0.10052415	      0.13845488	      0.00502621	      0.11447653
      2.29809189	     -0.01965064	     -0.00007017	      0.01592447	      2.32452984	    -61.25056214	      4.85876971	     -0.08004876	      0.00029298	      0.08615565	     -0.44591563	   -166.38765016	     -8.61255700	      0.10045033	      0.13862426	      0.00502252	      0.11452530
      2.29882650	     -0.01970937	     -0.00006997	      0.01598733	      2.32207635	    -61.37246197	      4.85649142	     -0.07985150	      0.00025330	      0.08501266	     -0.78918246	   -165.09783029	     -7.81669562	      0.10037657	      0.13875216	      0.00501883	      0.11457418
      2.29956112	     -0.01976795	     -0.00006980	      0.01604934	      2.32036980	    -61.49337149	      4.85535930	     -0.07962182	      0.00021172	      0.08377978	     -1.15602292	   -163.73412531	     -6.97990196	      0.10030286	      0.13891586	      0.00501514	      0.11462316
      2.30033940	     -0.01982983	     -0.00006965	      0.01611404	      2.31942472	    -61.62034188	      4.85547604	     -0.07941447	      0.00016814	      0.08251471	     -1.53077993	   -162.29661308	     -6.08753044	      0.10022482	      0.13905126	      0.00501124	      0.11467516
      2.30111768	     -0.01989155	     -0.00006954	      0.01617774	      2.31940651	    -61.74614591	      4.85698185	     -0.07916913	      0.00012253	      0.08115077	     -1.93029000	   -160.77765607	     -5.15177276	      0.10014685	      0.13922506	      0.00500734	      0.11472726
      2.30189597	     -0.01995308	     -0.00006946	      0.01624039	      2.32036595	    -61.87073456	      4.85994491	     -0.07896239	      0.00007762	      0.07983756	     -2.31192437	   -159.27204557	     -4.21438340	      0.10006894	      0.13935263	      0.00500345	      0.11477946
      2.30267425	     -0.02001444	     -0.00006942	      0.01630198	      2.32234239	    -61.99409841	      4.86440028	     -0.07871348	      0.00003069	      0.07842293	     -2.71789163	   -157.68355751	     -3.23509959	      0.09999108	      0.13951854	      0.00499955	      0.11483175
      2.30345253	     -0.02007561	     -0.00006941	      0.01636248	      2.32538530	    -62.11618954	      4.87041294	     -0.07849259	     -0.00001576	      0.07704429	     -3.10899943	   -156.09945084	     -2.25240218	      0.09991329	      0.13964646	      0.00499566	      0.11488412
      2.30423082	     -0.02013661	     -0.00006944	      0.01642188	      2.32953347	    -62.23699540	      4.87801781	     -0.07823430	     -0.00006391	      0.07557899	     -3.51917690	   -154.44196230	     -1.23412970	      0.09983556	      0.13980471	      0.00499178	      0.11493657
      2.30508818	     -0.02020356	     -0.00006952	      0.01648599	      2.33543857	    -62.36853499	      4.88830921	     -0.07797392	     -0.00011654	      0.07399704	     -3.95543020	   -152.61507570	     -0.10869310	      0.09975000	      0.13994549	      0.00498750	      0.11499444
      2.30594554	     -0.02027029	     -0.00006965	      0.01654872	      2.34278995	    -62.49844573	      4.90064507	     -0.07766591	     -0.00017114	      0.07231246	     -4.41316011	   -150.70012138	      1.05606271	      0.09966452	      0.14012329	      0.00498323	      0.11505238
      2.30680290	     -0.02033676	     -0.00006982	      0.01661002	      2.35164598	    -62.62666945	      4.91509780	     -0.07739284	     -0.00022482	      0.07068682	     -4.84689545	   -148.79913445	      2.21447270	      0.09957911	      0.14025078	      0.00497896	      0.11511040
      2.30766026	     -0.02040298	     -0.00007003	      0.01666989	      2.36204956	    -62.75318979	      4.93170146	     -0.07706460	     -0.00028063	      0.06895013	     -5.30453349	   -146.80253516	      3.41081981	      0.09949377	      0.14041633	      0.00497469	      0.11516847
      2.30851762	     -0.02046892	     -0.00007030	      0.01672827	      2.37405293	    -62.87794641	      4.95052168	     -0.07675721	     -0.00033592	      0.06725062	     -5.74508154	   -144.80294433	      4.60287452	      0.09940850	      0.14054567	      0.00497043	      0.11522658
      2.30937498	     -0.02053458	     -0.00007061	      0.01678517	      2.38769220	    -63.00091733	      4.97158717	     -0.07640740	     -0.00039284	      0.06546935	     -6.20248620	   -142.72261291	      5.82090173	      0.09932331	      0.14070022	      0.00496617	      0.11528473
      2.31037473	     -0.02061076	     -0.00007103	      0.01684959	      2.40571751	    -63.14198083	      4.99905396	     -0.07601708	     -0.00045882	      0.06342785	     -6.71975569	   -140.27991582	      7.23346905	      0.09922406	      0.14085078	      0.00496120	      0.11535256
